<svg width="148" height="26" viewBox="0 0 148 26" fill="none" xmlns="http://www.w3.org/2000/svg">
<path d="M138.777 21.4732V18.8984H137.513V21.4732H134.19V18.8984H132.92V21.4732H130.646V22.7461H141.057V21.4732H138.777Z" fill="#539DA9"/>
<mask id="mask0_154_2262" style="mask-type:luminance" maskUnits="userSpaceOnUse" x="141" y="2" width="3" height="15">
<path d="M141.587 2.57486H143.067V16.3429H141.587V2.57486Z" fill="white"/>
</mask>
<g mask="url(#mask0_154_2262)">
<path d="M141.72 2.64062H142.988V16.0778H141.72V2.64062Z" fill="#165267"/>
</g>
<path d="M138.528 8.62024H139.796V16.074H138.528V8.62024Z" fill="#165267"/>
<path d="M135.339 11.3092H136.609V16.074H135.339V11.3092Z" fill="#165267"/>
<mask id="mask1_154_2262" style="mask-type:luminance" maskUnits="userSpaceOnUse" x="124" y="5" width="19" height="15">
<path d="M124.124 5.44763H142.573V19.8095H124.124V5.44763Z" fill="white"/>
</mask>
<g mask="url(#mask1_154_2262)">
<path d="M142.354 19.531H127.089C126.895 19.531 126.702 19.5116 126.511 19.4729C126.32 19.4342 126.135 19.3781 125.956 19.3027C125.775 19.2292 125.605 19.1363 125.444 19.028C125.282 18.9196 125.131 18.7958 124.993 18.6585C124.856 18.5192 124.732 18.3702 124.625 18.2077C124.517 18.0452 124.424 17.8731 124.351 17.6932C124.276 17.5113 124.22 17.3256 124.181 17.1341C124.143 16.9426 124.124 16.7491 124.124 16.5537V8.44226C124.124 8.24687 124.143 8.05342 124.181 7.8619C124.22 7.67038 124.276 7.48467 124.351 7.30476C124.424 7.12291 124.517 6.95268 124.625 6.79018C124.732 6.62768 124.856 6.47678 124.993 6.33943C125.131 6.20015 125.282 6.07634 125.444 5.968C125.605 5.85967 125.775 5.76875 125.956 5.6933C126.135 5.61785 126.32 5.56175 126.511 5.52306C126.702 5.48437 126.895 5.46503 127.089 5.46503V6.74762C126.866 6.74762 126.65 6.79018 126.442 6.87723C126.236 6.96235 126.053 7.08616 125.893 7.24479C125.735 7.40342 125.611 7.5872 125.525 7.79419C125.438 8.00119 125.393 8.21785 125.392 8.44226V16.5537C125.393 16.7781 125.438 16.9948 125.526 17.2018C125.613 17.4088 125.737 17.5906 125.895 17.7493C126.054 17.9079 126.238 18.0298 126.444 18.1168C126.65 18.2019 126.866 18.2445 127.089 18.2464H142.354V19.531Z" fill="#787878"/>
</g>
<path d="M129.675 5.46503H140.758V6.73794H129.675V5.46503Z" fill="#787878"/>
<mask id="mask2_154_2262" style="mask-type:luminance" maskUnits="userSpaceOnUse" x="143" y="5" width="5" height="15">
<path d="M143.56 5.44763H147.301V19.8095H143.56V5.44763Z" fill="white"/>
</mask>
<g mask="url(#mask2_154_2262)">
<path d="M144.608 5.46503H143.946V6.74762H144.608C144.834 6.74762 145.052 6.79018 145.26 6.87723C145.47 6.96428 145.653 7.08616 145.813 7.24672C145.973 7.40729 146.096 7.593 146.181 7.80193C146.268 8.01086 146.312 8.22946 146.312 8.4558V16.5537C146.31 16.7781 146.264 16.9948 146.177 17.2018C146.09 17.4107 145.967 17.5926 145.807 17.7512C145.647 17.9098 145.464 18.0317 145.256 18.1168C145.05 18.2019 144.834 18.2464 144.608 18.2464V19.5155C144.803 19.5155 144.998 19.4961 145.189 19.4574C145.379 19.4187 145.564 19.3626 145.745 19.2872C145.925 19.2137 146.096 19.1208 146.258 19.0125C146.42 18.9042 146.57 18.7804 146.709 18.643C146.846 18.5037 146.969 18.3548 147.077 18.1923C147.187 18.0298 147.277 17.8576 147.353 17.6777C147.428 17.4958 147.484 17.3101 147.522 17.1186C147.561 16.9271 147.58 16.7336 147.58 16.5382V8.44226C147.58 8.24687 147.561 8.05342 147.522 7.8619C147.484 7.67038 147.428 7.48467 147.353 7.30282C147.277 7.12291 147.187 6.95074 147.077 6.78824C146.969 6.62574 146.846 6.47485 146.709 6.3375C146.57 6.19821 146.42 6.07634 146.258 5.968C146.096 5.85774 145.925 5.76681 145.745 5.69137C145.564 5.61785 145.379 5.56175 145.189 5.52306C144.998 5.48437 144.803 5.46503 144.608 5.46503Z" fill="#787878"/>
</g>
<path d="M66.9983 19.2778V5.41885H72.4404C73.4887 5.41885 74.379 5.62004 75.1152 6.02243C75.8552 6.42094 76.4179 6.97228 76.8033 7.67838C77.1926 8.38641 77.3891 9.19891 77.3891 10.1159C77.3891 11.0406 77.1906 11.8531 76.7956 12.5534C76.3986 13.2498 75.8263 13.7973 75.0766 14.1939C74.3308 14.5866 73.427 14.7819 72.3633 14.7819H69.912V19.2778H66.9983ZM69.912 12.4373H71.8931C72.7294 12.4373 73.3538 12.2245 73.7662 11.795C74.1767 11.3617 74.3829 10.8026 74.3829 10.1159C74.3829 9.42525 74.1767 8.87004 73.7662 8.45219C73.3538 8.03046 72.7256 7.81766 71.8777 7.81766H69.912V12.4373Z" fill="#787878"/>
<path d="M83.904 19.479C82.8596 19.479 81.9558 19.2546 81.1907 18.8058C80.4295 18.3569 79.8418 17.7302 79.4255 16.9254C79.0131 16.1206 78.8088 15.1882 78.8088 14.1242C78.8088 13.0525 79.0131 12.1123 79.4255 11.3075C79.8418 10.5028 80.4295 9.87599 81.1907 9.42718C81.9558 8.97837 82.8596 8.75397 83.904 8.75397C84.9524 8.75397 85.8562 8.97837 86.6174 9.42718C87.3767 9.87599 87.9625 10.5028 88.3749 11.3075C88.7911 12.1123 88.9993 13.0525 88.9993 14.1242C88.9993 15.1882 88.7911 16.1206 88.3749 16.9254C87.9625 17.7302 87.3767 18.3569 86.6174 18.8058C85.8562 19.2546 84.9524 19.479 83.904 19.479ZM83.9195 17.2504C84.6286 17.2504 85.1644 16.9544 85.5305 16.3605C85.9005 15.7627 86.0855 15.0102 86.0855 14.101C86.0855 13.1937 85.9005 12.4431 85.5305 11.8492C85.1644 11.2514 84.6286 10.9516 83.9195 10.9516C83.1949 10.9516 82.6476 11.2514 82.2776 11.8492C81.9114 12.4431 81.7303 13.1937 81.7303 14.101C81.7303 15.0102 81.9114 15.7627 82.2776 16.3605C82.6476 16.9544 83.1949 17.2504 83.9195 17.2504Z" fill="#787878"/>
<path d="M90.8748 19.2778V8.88552H93.6575V10.6962H93.7654C93.9504 10.052 94.2626 9.56454 94.7058 9.23373C95.1529 8.90486 95.6655 8.73849 96.2475 8.73849C96.5288 8.73849 96.789 8.77332 97.026 8.83909C97.2611 8.9068 97.475 8.99966 97.6658 9.11766L96.8025 11.501C96.6676 11.4294 96.5211 11.3694 96.3631 11.323C96.2031 11.2766 96.0239 11.2534 95.8235 11.2534C95.2415 11.2534 94.752 11.4526 94.3512 11.8492C93.9504 12.2477 93.7461 12.7623 93.7423 13.3968V19.2778H90.8748Z" fill="#787878"/>
<path d="M104.51 8.88553V11.0522H102.56V16.082C102.56 16.4805 102.649 16.7474 102.83 16.8867C103.009 17.026 103.242 17.0956 103.531 17.0956C103.664 17.0956 103.797 17.086 103.932 17.0647C104.071 17.0395 104.175 17.0183 104.248 17.0028L104.695 19.1462C104.551 19.1927 104.348 19.2468 104.086 19.3087C103.828 19.3706 103.512 19.4055 103.138 19.4171C102.099 19.4635 101.265 19.2391 100.633 18.7439C100.001 18.2448 99.6867 17.4826 99.6925 16.4611V11.0522H98.2742V8.88553H99.6925V6.39386H102.56V8.88553H104.51Z" fill="#787878"/>
<path d="M109.329 19.4712C108.337 19.4712 107.514 19.2139 106.862 18.6974C106.215 18.177 105.891 17.4032 105.891 16.376C105.891 15.6022 106.07 14.9947 106.431 14.5498C106.795 14.1068 107.273 13.7837 107.864 13.5825C108.454 13.3775 109.092 13.2401 109.776 13.1724C110.674 13.0854 111.318 12.9925 111.703 12.8938C112.089 12.7913 112.281 12.5747 112.281 12.2438V12.2052C112.281 11.7718 112.146 11.4391 111.88 11.2069C111.613 10.9748 111.235 10.8587 110.747 10.8587C110.227 10.8587 109.817 10.9729 109.514 11.1992C109.21 11.4217 109.007 11.7061 108.905 12.0504L106.253 11.8337C106.448 10.8897 106.936 10.143 107.718 9.58968C108.504 9.03254 109.518 8.75397 110.763 8.75397C111.528 8.75397 112.245 8.87584 112.913 9.11766C113.586 9.36141 114.127 9.74057 114.54 10.2552C114.95 10.7717 115.157 11.443 115.157 12.2671V19.2778H112.435V17.8385H112.351C112.098 18.3183 111.721 18.711 111.218 19.0147C110.718 19.3184 110.088 19.4712 109.329 19.4712ZM110.146 17.4825C110.778 17.4825 111.295 17.3007 111.695 16.9331C112.1 16.5675 112.304 16.111 112.304 15.5635V14.4647C112.191 14.5382 112.015 14.604 111.78 14.6659C111.543 14.7239 111.291 14.7742 111.025 14.8206C110.757 14.8632 110.518 14.898 110.308 14.929C109.803 15.0025 109.398 15.1437 109.09 15.3546C108.786 15.5674 108.635 15.8769 108.635 16.2831C108.635 16.6816 108.776 16.9796 109.059 17.1808C109.346 17.3819 109.709 17.4825 110.146 17.4825Z" fill="#787878"/>
<path d="M120.253 5.41885V19.2778H117.385V5.41885H120.253Z" fill="#787878"/>
<path d="M2.87967 19.2778H1.12988L6.19426 5.41885H7.92092L12.993 19.2778H11.2355L9.84801 15.3546H4.26717L2.87967 19.2778ZM4.79905 13.8689H9.32384L7.11155 7.61647H7.00363L4.79905 13.8689Z" fill="#54989C"/>
<path d="M18.2715 23.3944C17.1152 23.3944 16.1998 23.1816 15.5273 22.7599C14.8586 22.3363 14.3633 21.8507 14.0396 21.3052L15.3037 20.4153C15.4463 20.6049 15.6294 20.8215 15.851 21.0653C16.0707 21.3129 16.3713 21.5257 16.7529 21.7075C17.1383 21.8933 17.6432 21.9861 18.2715 21.9861C19.1078 21.9861 19.7977 21.7811 20.3373 21.3748C20.8807 20.9666 21.1544 20.3302 21.1544 19.4635V17.3587H21.0233C20.9038 17.5444 20.7381 17.7766 20.5223 18.0552C20.3103 18.3337 20.0058 18.5813 19.605 18.798C19.208 19.0108 18.6742 19.1153 18.0017 19.1153C17.1634 19.1153 16.4137 18.918 15.7508 18.5194C15.0879 18.1229 14.5637 17.5444 14.1783 16.7861C13.7968 16.0278 13.6079 15.1108 13.6079 14.0313C13.6079 12.9635 13.7929 12.0349 14.1629 11.2456C14.5368 10.4525 15.0571 9.8373 15.72 9.40397C16.3868 8.97063 17.1557 8.75397 18.0248 8.75397C18.7031 8.75397 19.2388 8.86617 19.6358 9.08671C20.0309 9.30918 20.3334 9.5626 20.5454 9.84504C20.7612 10.1236 20.927 10.3538 21.0465 10.5337H21.2083V8.88551H22.7423V19.5718C22.7423 20.4694 22.5419 21.1968 22.141 21.754C21.7402 22.315 21.2006 22.729 20.5223 22.9921C19.8478 23.259 19.0982 23.3944 18.2715 23.3944ZM18.2175 17.6837C19.1733 17.6837 19.9056 17.3587 20.4144 16.7087C20.927 16.0549 21.1852 15.1514 21.1852 14.0004C21.1852 12.8764 20.9328 11.9614 20.4298 11.2534C19.9249 10.5415 19.1887 10.1855 18.2175 10.1855C17.543 10.1855 16.9842 10.3596 16.5371 10.704C16.09 11.0444 15.7528 11.5049 15.5273 12.0813C15.3057 12.6598 15.1958 13.3001 15.1958 14.0004C15.1958 15.0837 15.4502 15.9697 15.959 16.6546C16.4677 17.3413 17.2193 17.6837 18.2175 17.6837Z" fill="#54989C"/>
<path d="M29.1592 19.4944C28.1609 19.4944 27.3014 19.2739 26.5769 18.829C25.8561 18.386 25.3011 17.765 24.9119 16.9641C24.5264 16.1593 24.3337 15.2269 24.3337 14.1629C24.3337 13.1008 24.5264 12.1626 24.9119 11.3462C25.3011 10.5318 25.8465 9.89727 26.546 9.44266C27.2436 8.98418 28.0607 8.75397 28.9973 8.75397C29.5369 8.75397 30.0687 8.84489 30.5929 9.0248C31.1171 9.20665 31.595 9.49682 32.0267 9.89921C32.4583 10.3016 32.8013 10.8355 33.0596 11.501C33.3159 12.1626 33.445 12.977 33.445 13.9462V14.6194H25.9294C25.9641 15.7337 26.2782 16.5888 26.8698 17.1808C27.4595 17.7688 28.2226 18.0629 29.1592 18.0629C29.7797 18.0629 30.3154 17.9294 30.7625 17.6605C31.2134 17.3877 31.543 16.9796 31.7492 16.4379L33.2831 16.8712C33.0403 17.6566 32.5547 18.2912 31.8262 18.7748C31.0959 19.2546 30.2075 19.4944 29.1592 19.4944ZM25.9294 13.2421H31.8262C31.8262 12.3657 31.568 11.6383 31.0554 11.0599C30.5467 10.4776 29.8606 10.1855 28.9973 10.1855C28.3903 10.1855 27.8642 10.3287 27.4171 10.6111C26.9738 10.8955 26.625 11.2727 26.3687 11.7409C26.1105 12.2052 25.9641 12.7062 25.9294 13.2421Z" fill="#54989C"/>
<path d="M36.6211 13.0254V19.2778H35.0332V8.88551H36.5672V10.5105H36.7059C36.9468 9.98432 37.3149 9.5626 37.8082 9.24147C38.3015 8.91647 38.9375 8.75397 39.7199 8.75397C40.7682 8.75397 41.6123 9.07703 42.2559 9.72123C42.9034 10.3674 43.2272 11.352 43.2272 12.6772V19.2778H41.6392V12.7855C41.6392 11.9653 41.4253 11.3288 40.9995 10.8742C40.5774 10.4157 39.9993 10.1855 39.2651 10.1855C38.5039 10.1855 37.8718 10.4331 37.3688 10.9284C36.8697 11.4197 36.6211 12.1181 36.6211 13.0254Z" fill="#54989C"/>
<path d="M49.5021 19.4944C48.5347 19.4944 47.7003 19.2662 46.9969 18.8058C46.2974 18.3473 45.7578 17.7147 45.3781 16.9099C45.0024 16.1013 44.8154 15.1766 44.8154 14.1397C44.8154 13.0834 45.0081 12.1491 45.3936 11.3385C45.7828 10.5299 46.3282 9.89727 47.0277 9.44266C47.7253 8.98418 48.5424 8.75397 49.479 8.75397C50.2074 8.75397 50.8626 8.89132 51.4446 9.16409C52.0304 9.43299 52.5083 9.81022 52.8783 10.2938C53.2522 10.7794 53.4834 11.3462 53.5721 11.9962H51.9842C51.8647 11.5223 51.5988 11.1025 51.1825 10.7349C50.7663 10.3693 50.2055 10.1855 49.5021 10.1855C48.5713 10.1855 47.8217 10.5415 47.2513 11.2534C46.6847 11.9614 46.4033 12.9055 46.4033 14.0855C46.4033 15.2888 46.6828 16.2522 47.2436 16.9796C47.8082 17.7031 48.5617 18.0629 49.5021 18.0629C50.1226 18.0629 50.6545 17.9043 51.0977 17.5831C51.539 17.2581 51.8339 16.8132 51.9842 16.2444H53.5721C53.4834 16.8596 53.2638 17.411 52.9092 17.9004C52.5584 18.3918 52.094 18.7806 51.514 19.0688C50.9378 19.3513 50.2671 19.4944 49.5021 19.4944Z" fill="#54989C"/>
<path d="M56.0279 23.3093C55.7543 23.3093 55.5134 23.2861 55.3034 23.2397C55.0914 23.1971 54.9449 23.1584 54.864 23.1236L55.2725 21.7153C55.8526 21.8643 56.3363 21.8584 56.7217 21.6998C57.111 21.5451 57.4463 21.0808 57.7238 20.307L58.0784 19.332L54.2473 8.88553H55.974L58.8261 17.1653H58.934L61.7938 8.88553H63.5204L59.0727 20.957C58.4869 22.5239 57.4713 23.3093 56.0279 23.3093Z" fill="#54989C"/>
</svg>
